<svg width="165" height="128" viewBox="0 0 165 128" fill="none" xmlns="http://www.w3.org/2000/svg">
<path d="M108.173 55.8145C104.187 49.4355 95.7849 47.4957 89.4059 51.4817V51.4817C83.0269 55.4677 81.087 63.8702 85.073 70.2492L113.942 116.45C117.929 122.829 126.331 124.769 132.71 120.783V120.783C139.089 116.797 141.029 108.394 137.043 102.015L108.173 55.8145Z" fill="#00a79d"/>
<path d="M60.388 14.4377C65.3705 6.46399 75.8737 4.03915 83.8474 9.02169V9.02169C91.8211 14.0042 94.246 24.5074 89.2634 32.4811L38.7419 113.332C33.7594 121.306 23.2563 123.731 15.2825 118.748V118.748C7.30878 113.766 4.88394 103.263 9.86648 95.289L60.388 14.4377Z" fill="#F8F9FA"/>
<path d="M137.45 74.0573C137.45 66.5353 143.548 60.4376 151.07 60.4376V60.4376C158.592 60.4376 164.69 66.5353 164.69 74.0573V74.0573C164.69 81.5793 158.592 87.677 151.07 87.677V87.677C143.548 87.677 137.45 81.5793 137.45 74.0573V74.0573Z" fill="#00a79d"/>
</svg>
