<svg width="671" height="128" viewBox="0 0 671 128" fill="none" xmlns="http://www.w3.org/2000/svg">
<path d="M231.362 72.6716H208.049L203.602 83.4345H191.695L214.075 33.2074H225.552L248.004 83.4345H235.809L231.362 72.6716ZM227.704 63.8459L219.741 44.6161L211.779 63.8459H227.704Z" fill="#F8F9FA"/>
<path d="M261.092 42.6788H245.024V33.2074H288.78V42.6788H272.713V83.4345H261.092V42.6788Z" fill="#F8F9FA"/>
<path d="M325.579 72.6716H302.266L297.819 83.4345H285.912L308.292 33.2074H319.769L342.221 83.4345H330.026L325.579 72.6716ZM321.921 63.8459L313.959 44.6161L305.996 63.8459H321.921Z" fill="#F8F9FA"/>
<path d="M363.928 84.2955C359.959 84.2955 356.11 83.7694 352.38 82.717C348.697 81.6168 345.733 80.2056 343.485 78.4836L347.43 69.7297C349.582 71.3083 352.141 72.5759 355.105 73.5326C358.07 74.4893 361.035 74.9677 364 74.9677C367.3 74.9677 369.739 74.4893 371.317 73.5326C372.895 72.528 373.684 71.2126 373.684 69.5862C373.684 68.3903 373.206 67.4097 372.249 66.6443C371.341 65.8311 370.145 65.1853 368.663 64.707C367.228 64.2286 365.267 63.7024 362.781 63.1284C358.955 62.2195 355.823 61.3107 353.384 60.4018C350.945 59.4929 348.841 58.0339 347.072 56.0249C345.35 54.0158 344.489 51.337 344.489 47.9885C344.489 45.0706 345.278 42.4396 346.856 40.0957C348.434 37.7039 350.802 35.8144 353.958 34.4272C357.162 33.04 361.059 32.3464 365.65 32.3464C368.854 32.3464 371.986 32.7291 375.047 33.4944C378.107 34.2598 380.785 35.36 383.081 36.7951L379.494 45.6207C374.855 42.9897 370.217 41.6743 365.578 41.6743C362.326 41.6743 359.911 42.2005 358.333 43.2528C356.803 44.3052 356.038 45.6924 356.038 47.4145C356.038 49.1366 356.923 50.4281 358.692 51.2892C360.509 52.1024 363.259 52.9156 366.941 53.7288C370.767 54.6376 373.899 55.5465 376.338 56.4554C378.777 57.3643 380.857 58.7993 382.578 60.7606C384.348 62.7218 385.233 65.3767 385.233 68.7251C385.233 71.5953 384.42 74.2262 382.794 76.618C381.216 78.9619 378.825 80.8275 375.621 82.2147C372.417 83.6019 368.519 84.2955 363.928 84.2955Z" fill="#F8F9FA"/>
<path d="M459.539 33.2074V83.4345H449.998L424.964 52.9395V83.4345H413.487V33.2074H423.099L448.062 63.7024V33.2074H459.539Z" fill="#F8F9FA"/>
<path d="M504.487 72.6716H481.174L476.727 83.4345H464.819L487.199 33.2074H498.676L521.128 83.4345H508.934L504.487 72.6716ZM500.828 63.8459L492.866 44.6161L484.904 63.8459H500.828Z" fill="#F8F9FA"/>
<path d="M526.338 33.2074H537.958V73.9631H563.136V83.4345H526.338V33.2074Z" fill="#F8F9FA"/>
<path d="M603.117 72.6716H579.804L575.357 83.4345H563.45L585.83 33.2074H597.307L619.759 83.4345H607.564L603.117 72.6716ZM599.459 63.8459L591.497 44.6161L583.534 63.8459H599.459Z" fill="#F8F9FA"/>
<path d="M656.96 83.4345L647.276 69.4427H646.703H636.589V83.4345H624.968V33.2074H646.703C651.15 33.2074 655 33.9489 658.251 35.4318C661.551 36.9146 664.085 39.0194 665.855 41.746C667.624 44.4726 668.509 47.7015 668.509 51.4327C668.509 55.1638 667.6 58.3927 665.783 61.1193C664.014 63.7981 661.479 65.855 658.18 67.2901L669.441 83.4345H656.96ZM656.745 51.4327C656.745 48.6104 655.836 46.4578 654.019 44.9749C652.202 43.4442 649.548 42.6788 646.057 42.6788H636.589V60.1865H646.057C649.548 60.1865 652.202 59.4212 654.019 57.8904C655.836 56.3597 656.745 54.2071 656.745 51.4327Z" fill="#F8F9FA"/>
<path d="M467.086 104.949H474.725C476.589 104.949 478.245 105.314 479.693 106.042C481.141 106.754 482.264 107.772 483.063 109.096C483.862 110.403 484.262 111.918 484.262 113.639C484.262 115.361 483.862 116.883 483.063 118.207C482.264 119.515 481.141 120.533 479.693 121.261C478.245 121.973 476.589 122.329 474.725 122.329H467.086V104.949ZM474.575 119.598C475.857 119.598 476.98 119.358 477.946 118.878C478.928 118.381 479.676 117.686 480.192 116.792C480.725 115.882 480.991 114.831 480.991 113.639C480.991 112.447 480.725 111.405 480.192 110.511C479.676 109.601 478.928 108.905 477.946 108.425C476.98 107.929 475.857 107.681 474.575 107.681H470.331V119.598H474.575Z" fill="#F8F9FA"/>
<path d="M500.817 119.623V122.329H487.711V104.949H500.468V107.656H490.956V112.174H499.394V114.831H490.956V119.623H500.817Z" fill="#F8F9FA"/>
<path d="M509.853 122.577C508.505 122.577 507.198 122.387 505.933 122.006C504.685 121.625 503.695 121.121 502.962 120.492L504.086 117.984C504.802 118.547 505.675 119.01 506.707 119.374C507.756 119.722 508.804 119.896 509.853 119.896C511.151 119.896 512.116 119.689 512.749 119.275C513.398 118.861 513.722 118.315 513.722 117.636C513.722 117.14 513.539 116.734 513.173 116.42C512.824 116.089 512.374 115.832 511.825 115.65C511.276 115.468 510.527 115.261 509.578 115.029C508.247 114.715 507.165 114.401 506.333 114.086C505.517 113.772 504.81 113.283 504.211 112.621C503.628 111.943 503.337 111.032 503.337 109.89C503.337 108.93 503.595 108.061 504.111 107.283C504.643 106.489 505.434 105.86 506.482 105.396C507.548 104.933 508.846 104.701 510.377 104.701C511.442 104.701 512.491 104.834 513.523 105.098C514.554 105.363 515.445 105.744 516.194 106.241L515.17 108.748C514.405 108.301 513.606 107.962 512.774 107.73C511.941 107.498 511.134 107.383 510.352 107.383C509.07 107.383 508.114 107.598 507.481 108.028C506.865 108.458 506.557 109.029 506.557 109.741C506.557 110.238 506.732 110.643 507.082 110.958C507.448 111.272 507.905 111.521 508.455 111.703C509.004 111.885 509.753 112.092 510.702 112.323C512 112.621 513.065 112.936 513.897 113.267C514.729 113.581 515.436 114.069 516.019 114.732C516.618 115.394 516.918 116.287 516.918 117.413C516.918 118.373 516.651 119.242 516.119 120.02C515.603 120.798 514.812 121.418 513.747 121.882C512.682 122.345 511.384 122.577 509.853 122.577Z" fill="#F8F9FA"/>
<path d="M520.136 104.949H523.381V122.329H520.136V104.949Z" fill="#F8F9FA"/>
<path d="M540.041 113.441H543.112V120.367C542.213 121.079 541.164 121.625 539.966 122.006C538.768 122.387 537.536 122.577 536.271 122.577C534.491 122.577 532.884 122.196 531.453 121.435C530.022 120.657 528.898 119.59 528.083 118.232C527.267 116.875 526.86 115.344 526.86 113.639C526.86 111.934 527.267 110.403 528.083 109.046C528.898 107.689 530.022 106.629 531.453 105.868C532.901 105.09 534.524 104.701 536.321 104.701C537.786 104.701 539.117 104.941 540.316 105.421C541.514 105.901 542.521 106.605 543.336 107.532L541.289 109.518C539.958 108.194 538.352 107.532 536.471 107.532C535.239 107.532 534.141 107.788 533.176 108.301C532.227 108.814 531.478 109.534 530.929 110.461C530.396 111.388 530.13 112.447 530.13 113.639C530.13 114.798 530.396 115.841 530.929 116.767C531.478 117.694 532.227 118.423 533.176 118.952C534.141 119.482 535.231 119.747 536.446 119.747C537.811 119.747 539.009 119.449 540.041 118.853V113.441Z" fill="#F8F9FA"/>
<path d="M562.92 104.949V122.329H560.249L550.613 110.561V122.329H547.392V104.949H550.063L559.7 116.718V104.949H562.92Z" fill="#F8F9FA"/>
<path d="M579.919 122.577C578.571 122.577 577.265 122.387 576 122.006C574.752 121.625 573.762 121.121 573.029 120.492L574.153 117.984C574.868 118.547 575.742 119.01 576.774 119.374C577.822 119.722 578.871 119.896 579.919 119.896C581.218 119.896 582.183 119.689 582.815 119.275C583.464 118.861 583.789 118.315 583.789 117.636C583.789 117.14 583.606 116.734 583.24 116.42C582.89 116.089 582.441 115.832 581.892 115.65C581.342 115.468 580.594 115.261 579.645 115.029C578.313 114.715 577.232 114.401 576.399 114.086C575.584 113.772 574.877 113.283 574.277 112.621C573.695 111.943 573.404 111.032 573.404 109.89C573.404 108.93 573.662 108.061 574.178 107.283C574.71 106.489 575.501 105.86 576.549 105.396C577.614 104.933 578.913 104.701 580.444 104.701C581.509 104.701 582.557 104.834 583.589 105.098C584.621 105.363 585.512 105.744 586.261 106.241L585.237 108.748C584.471 108.301 583.673 107.962 582.84 107.73C582.008 107.498 581.201 107.383 580.419 107.383C579.137 107.383 578.18 107.598 577.548 108.028C576.932 108.458 576.624 109.029 576.624 109.741C576.624 110.238 576.799 110.643 577.148 110.958C577.515 111.272 577.972 111.521 578.521 111.703C579.071 111.885 579.82 112.092 580.768 112.323C582.066 112.621 583.132 112.936 583.964 113.267C584.796 113.581 585.503 114.069 586.086 114.732C586.685 115.394 586.984 116.287 586.984 117.413C586.984 118.373 586.718 119.242 586.186 120.02C585.67 120.798 584.879 121.418 583.814 121.882C582.749 122.345 581.451 122.577 579.919 122.577Z" fill="#F8F9FA"/>
<path d="M593.504 107.681H587.712V104.949H602.541V107.681H596.749V122.329H593.504V107.681Z" fill="#F8F9FA"/>
<path d="M612.174 122.577C609.761 122.577 607.88 121.907 606.532 120.566C605.184 119.209 604.51 117.272 604.51 114.756V104.949H607.755V114.632C607.755 118.042 609.237 119.747 612.199 119.747C615.145 119.747 616.618 118.042 616.618 114.632V104.949H619.813V114.756C619.813 117.272 619.139 119.209 617.791 120.566C616.46 121.907 614.587 122.577 612.174 122.577Z" fill="#F8F9FA"/>
<path d="M624.358 104.949H631.997C633.862 104.949 635.518 105.314 636.965 106.042C638.413 106.754 639.537 107.772 640.336 109.096C641.135 110.403 641.534 111.918 641.534 113.639C641.534 115.361 641.135 116.883 640.336 118.207C639.537 119.515 638.413 120.533 636.965 121.261C635.518 121.973 633.862 122.329 631.997 122.329H624.358V104.949ZM631.848 119.598C633.129 119.598 634.253 119.358 635.218 118.878C636.2 118.381 636.949 117.686 637.465 116.792C637.997 115.882 638.264 114.831 638.264 113.639C638.264 112.447 637.997 111.405 637.465 110.511C636.949 109.601 636.2 108.905 635.218 108.425C634.253 107.929 633.129 107.681 631.848 107.681H627.604V119.598H631.848Z" fill="#F8F9FA"/>
<path d="M644.983 104.949H648.229V122.329H644.983V104.949Z" fill="#F8F9FA"/>
<path d="M661.119 122.577C659.338 122.577 657.732 122.196 656.301 121.435C654.869 120.657 653.746 119.59 652.931 118.232C652.115 116.858 651.707 115.327 651.707 113.639C651.707 111.951 652.115 110.428 652.931 109.071C653.746 107.697 654.869 106.629 656.301 105.868C657.732 105.09 659.338 104.701 661.119 104.701C662.9 104.701 664.506 105.09 665.937 105.868C667.368 106.629 668.492 107.689 669.307 109.046C670.123 110.403 670.531 111.934 670.531 113.639C670.531 115.344 670.123 116.875 669.307 118.232C668.492 119.59 667.368 120.657 665.937 121.435C664.506 122.196 662.9 122.577 661.119 122.577ZM661.119 119.747C662.284 119.747 663.333 119.49 664.265 118.977C665.197 118.447 665.929 117.719 666.461 116.792C666.994 115.849 667.26 114.798 667.26 113.639C667.26 112.481 666.994 111.438 666.461 110.511C665.929 109.567 665.197 108.839 664.265 108.326C663.333 107.796 662.284 107.532 661.119 107.532C659.954 107.532 658.905 107.796 657.973 108.326C657.041 108.839 656.309 109.567 655.777 110.511C655.244 111.438 654.978 112.481 654.978 113.639C654.978 114.798 655.244 115.849 655.777 116.792C656.309 117.719 657.041 118.447 657.973 118.977C658.905 119.49 659.954 119.747 661.119 119.747Z" fill="#F8F9FA"/>
<path d="M107.939 55.8145C103.953 49.4355 95.5505 47.4957 89.1715 51.4817V51.4817C82.7925 55.4677 80.8526 63.8702 84.8387 70.2492L113.708 116.45C117.694 122.829 126.097 124.769 132.476 120.783V120.783C138.855 116.797 140.794 108.394 136.808 102.015L107.939 55.8145Z" fill="#00a79d"/>
<path d="M60.1536 14.4377C65.1361 6.46399 75.6393 4.03915 83.613 9.02169V9.02169C91.5868 14.0042 94.0116 24.5074 89.0291 32.4811L38.5076 113.332C33.525 121.306 23.0219 123.731 15.0481 118.748V118.748C7.0744 113.766 4.64956 103.263 9.63211 95.289L60.1536 14.4377Z" fill="#F8F9FA"/>
<path d="M137.216 74.0573C137.216 66.5353 143.314 60.4376 150.836 60.4376V60.4376C158.358 60.4376 164.455 66.5353 164.455 74.0573V74.0573C164.455 81.5793 158.358 87.677 150.836 87.677V87.677C143.314 87.677 137.216 81.5793 137.216 74.0573V74.0573Z" fill="#00a79d"/>
</svg>
