<svg height="464pt" viewBox="0 -8 464 464" width="464pt" xmlns="http://www.w3.org/2000/svg"><path d="m32 8h400v432h-400zm0 0" fill="#d9d9d9"/><path d="m8 56h448v104h-448zm0 0" fill="#ebebeb"/><path d="m144 264h88v176h-88zm0 0" fill="#f9f9f9"/><path d="m232 232h200v160h-200zm0 0" fill="#a8d6da"/><path d="m232 232h200v80h-200zm0 0" fill="#b8eaee"/><path d="m144 392h88v48h-88zm0 0" fill="#ebebeb"/><path d="m168 312h16v16h-16zm0 0" fill="#ebebeb"/><path d="m8 160h64v8c0 17.671875-14.328125 32-32 32s-32-14.328125-32-32zm0 0" fill="#64a8b2"/><path d="m72 160h64v8c0 17.671875-14.328125 32-32 32s-32-14.328125-32-32zm0 0" fill="#e4e4e2"/><path d="m136 160h64v8c0 17.671875-14.328125 32-32 32s-32-14.328125-32-32zm0 0" fill="#64a8b2"/><path d="m200 160h64v8c0 17.671875-14.328125 32-32 32s-32-14.328125-32-32zm0 0" fill="#e4e4e2"/><path d="m264 160h64v8c0 17.671875-14.328125 32-32 32s-32-14.328125-32-32zm0 0" fill="#64a8b2"/><path d="m328 160h64v8c0 17.671875-14.328125 32-32 32s-32-14.328125-32-32zm0 0" fill="#e4e4e2"/><path d="m392 160h64v8c0 17.671875-14.328125 32-32 32s-32-14.328125-32-32zm0 0" fill="#64a8b2"/><path d="m8 56h64v104h-64zm0 0" fill="#6fbbc6"/><path d="m136 56h64v104h-64zm0 0" fill="#6fbbc6"/><path d="m264 56h64v104h-64zm0 0" fill="#6fbbc6"/><path d="m392 56h64v104h-64zm0 0" fill="#6fbbc6"/><path d="m120 264c0 17.671875-14.328125 32-32 32s-32-14.328125-32-32 14.328125-32 32-32 32 14.328125 32 32zm0 0" fill="#fbd699"/><path d="m32 360h112v80h-112zm0 0" fill="#fbd699"/><path d="m232 264h-88v-16c0-8.835938 7.164062-16 16-16h56c8.835938 0 16 7.164062 16 16zm0 0" fill="#ebebeb"/><path d="m280 288c-3.234375 0-6.152344-1.949219-7.390625-4.9375s-.550781-6.429688 1.734375-8.71875l16-16c3.140625-3.03125 8.128906-2.988281 11.214844.097656 3.085937 3.085938 3.128906 8.074219.097656 11.214844l-16 16c-1.5 1.5-3.535156 2.34375-5.65625 2.34375zm0 0" fill="#c0f5f9"/><path d="m328 288c-3.234375 0-6.152344-1.949219-7.390625-4.9375s-.550781-6.429688 1.734375-8.71875l16-16c3.140625-3.03125 8.128906-2.988281 11.214844.097656 3.085937 3.085938 3.128906 8.074219.097656 11.214844l-16 16c-1.5 1.5-3.535156 2.34375-5.65625 2.34375zm0 0" fill="#c0f5f9"/><path d="m376 288c-3.234375 0-6.152344-1.949219-7.390625-4.9375s-.550781-6.429688 1.734375-8.71875l16-16c3.140625-3.03125 8.128906-2.988281 11.214844.097656 3.085937 3.085938 3.128906 8.074219.097656 11.214844l-16 16c-1.5 1.5-3.535156 2.34375-5.65625 2.34375zm0 0" fill="#c0f5f9"/><path d="m280 368c-3.234375 0-6.152344-1.949219-7.390625-4.9375s-.550781-6.429688 1.734375-8.71875l16-16c3.140625-3.03125 8.128906-2.988281 11.214844.097656 3.085937 3.085938 3.128906 8.074219.097656 11.214844l-16 16c-1.5 1.5-3.535156 2.34375-5.65625 2.34375zm0 0" fill="#c0f5f9"/><path d="m328 368c-3.234375 0-6.152344-1.949219-7.390625-4.9375s-.550781-6.429688 1.734375-8.71875l16-16c3.140625-3.03125 8.128906-2.988281 11.214844.097656 3.085937 3.085938 3.128906 8.074219.097656 11.214844l-16 16c-1.5 1.5-3.535156 2.34375-5.65625 2.34375zm0 0" fill="#c0f5f9"/><path d="m376 368c-3.234375 0-6.152344-1.949219-7.390625-4.9375s-.550781-6.429688 1.734375-8.71875l16-16c3.140625-3.03125 8.128906-2.988281 11.214844.097656 3.085937 3.085938 3.128906 8.074219.097656 11.214844l-16 16c-1.5 1.5-3.535156 2.34375-5.65625 2.34375zm0 0" fill="#c0f5f9"/><g fill="#a8d6da"><path d="m40 384h16v16h-16zm0 0"/><path d="m56 400h16v16h-16zm0 0"/><path d="m72 384h16v16h-16zm0 0"/><path d="m88 400h16v16h-16zm0 0"/><path d="m104 384h16v16h-16zm0 0"/><path d="m120 400h16v16h-16zm0 0"/></g><path d="m24 8v40h-16c-4.417969 0-8 3.582031-8 8v112c.0195312 15.886719 9.441406 30.253906 24 36.609375v235.390625c0 4.417969 3.582031 8 8 8h400c4.417969 0 8-3.582031 8-8v-235.390625c14.558594-6.355469 23.980469-20.722656 24-36.609375v-112c0-4.417969-3.582031-8-8-8h-16v-40c0-4.417969-3.582031-8-8-8h-400c-4.417969 0-8 3.582031-8 8zm40 56v88h-48v-88zm64 0v88h-48v-88zm128 0v88h-48v-88zm128 0v88h-48v-88zm-256 104c0 13.253906-10.746094 24-24 24s-24-10.746094-24-24zm64 0c0 13.253906-10.746094 24-24 24s-24-10.746094-24-24zm64 0c0 13.253906-10.746094 24-24 24s-24-10.746094-24-24zm64 0c0 13.253906-10.746094 24-24 24s-24-10.746094-24-24zm64 0c0 13.253906-10.746094 24-24 24s-24-10.746094-24-24zm-64-16h-48v-88h48zm-128 0h-48v-88h48zm-176 16h48c0 13.253906-10.746094 24-24 24s-24-10.746094-24-24zm24 232h16v-16h-16v-16h96v32h-16v16h16v16h-96zm184-144h-72v-8c0-4.417969 3.582031-8 8-8h56c4.417969 0 8 3.582031 8 8zm-72 16h72v112h-72zm0 160v-32h72v32zm272 0h-184v-32h184zm0-48h-184v-64h184zm0-80h-184v-64h184zm0-80h-192c-2.148438-.003906-4.203125.863281-5.703125 2.398438-3.210937-1.558594-6.726563-2.378907-10.296875-2.398438h-56c-13.253906 0-24 10.746094-24 24v104h-96v-144c12.640625-.035156 24.511719-6.0625 32-16.246094 7.460938 10.210938 19.351562 16.25 32 16.25s24.539062-6.039062 32-16.25c7.460938 10.210938 19.351562 16.25 32 16.25s24.539062-6.039062 32-16.25c7.460938 10.210938 19.351562 16.25 32 16.25s24.539062-6.039062 32-16.25c7.460938 10.210938 19.351562 16.25 32 16.25s24.539062-6.039062 32-16.25c7.460938 10.210938 19.351562 16.25 32 16.25s24.539062-6.039062 32-16.25c7.488281 10.183594 19.359375 16.210938 32 16.246094zm0-32c-13.253906 0-24-10.746094-24-24h48c0 13.253906-10.746094 24-24 24zm24-40h-48v-88h48zm-24-136v32h-384v-32zm0 0"/><path d="m168 312h16v16h-16zm0 0"/><path d="m88 232c-17.671875 0-32 14.328125-32 32s14.328125 32 32 32 32-14.328125 32-32-14.328125-32-32-32zm0 48c-8.835938 0-16-7.164062-16-16s7.164062-16 16-16 16 7.164062 16 16-7.164062 16-16 16zm0 0"/><path d="m290.34375 258.34375-16 16c-2.078125 2.007812-2.914062 4.984375-2.179688 7.78125.730469 2.796875 2.914063 4.980469 5.710938 5.710938 2.796875.734374 5.773438-.101563 7.78125-2.179688l16-16c3.03125-3.140625 2.988281-8.128906-.097656-11.214844-3.085938-3.085937-8.074219-3.128906-11.214844-.097656zm0 0"/><path d="m338.34375 258.34375-16 16c-2.078125 2.007812-2.914062 4.984375-2.179688 7.78125.730469 2.796875 2.914063 4.980469 5.710938 5.710938 2.796875.734374 5.773438-.101563 7.78125-2.179688l16-16c3.03125-3.140625 2.988281-8.128906-.097656-11.214844-3.085938-3.085937-8.074219-3.128906-11.214844-.097656zm0 0"/><path d="m386.34375 258.34375-16 16c-2.078125 2.007812-2.914062 4.984375-2.179688 7.78125.730469 2.796875 2.914063 4.980469 5.710938 5.710938 2.796875.734374 5.773438-.101563 7.78125-2.179688l16-16c3.03125-3.140625 2.988281-8.128906-.097656-11.214844-3.085938-3.085937-8.074219-3.128906-11.214844-.097656zm0 0"/><path d="m274.34375 365.65625c3.125 3.121094 8.1875 3.121094 11.3125 0l16-16c3.03125-3.140625 2.988281-8.128906-.097656-11.214844-3.085938-3.085937-8.074219-3.128906-11.214844-.097656l-16 16c-3.121094 3.125-3.121094 8.1875 0 11.3125zm0 0"/><path d="m328 368c2.121094 0 4.15625-.84375 5.65625-2.34375l16-16c3.03125-3.140625 2.988281-8.128906-.097656-11.214844-3.085938-3.085937-8.074219-3.128906-11.214844-.097656l-16 16c-2.285156 2.289062-2.972656 5.730469-1.734375 8.71875s4.15625 4.9375 7.390625 4.9375zm0 0"/><path d="m376 368c2.121094 0 4.15625-.84375 5.65625-2.34375l16-16c3.03125-3.140625 2.988281-8.128906-.097656-11.214844-3.085938-3.085937-8.074219-3.128906-11.214844-.097656l-16 16c-2.285156 2.289062-2.972656 5.730469-1.734375 8.71875s4.15625 4.9375 7.390625 4.9375zm0 0"/><path d="m56 400h16v16h-16zm0 0"/><path d="m72 384h16v16h-16zm0 0"/><path d="m88 400h16v16h-16zm0 0"/><path d="m104 384h16v16h-16zm0 0"/></svg>